HIERARCHY
ROOT Hips
{
	OFFSET	0.00	0.00	0.00
	CHANNELS 6 Xposition Yposition Zposition Zrotation Xrotation Yrotation
	JOINT LeftUpLeg
	{
		OFFSET	 0.126116	-0.014019	-0.065224
		CHANNELS 3 Zrotation Xrotation Yrotation
		JOINT LeftLeg
		{
			OFFSET	 0.000000	 0.000000	 0.569914
			CHANNELS 3 Zrotation Xrotation Yrotation
			JOINT LeftFoot
			{
				OFFSET	 0.000000	 0.000000	 0.544423
				CHANNELS 3 Zrotation Xrotation Yrotation
				JOINT LeftToeBase
				{
					OFFSET	 0.000000	 0.000000	 0.207117
					CHANNELS 3 Zrotation Xrotation Yrotation
					End Site
					{
						OFFSET	 0.000000	 0.000000	 0.207117
					}
				}
			}
		}
	}
	JOINT RightUpLeg
	{
		OFFSET	-0.124023	-0.008373	-0.065224
		CHANNELS 3 Zrotation Xrotation Yrotation
		JOINT RightLeg
		{
			OFFSET	 0.000000	 0.000000	 0.570047
			CHANNELS 3 Zrotation Xrotation Yrotation
			JOINT RightFoot
			{
				OFFSET	 0.000000	 0.000000	 0.544354
				CHANNELS 3 Zrotation Xrotation Yrotation
				JOINT RightToeBase
				{
					OFFSET	 0.000000	 0.000000	 0.207540
					CHANNELS 3 Zrotation Xrotation Yrotation
					End Site
					{
						OFFSET	 0.000000	 0.000000	 0.207540
					}
				}
			}
		}
	}
	JOINT Spine
	{
		OFFSET	 0.000184	-0.007763	 0.117403
		CHANNELS 3 Zrotation Xrotation Yrotation
		JOINT Spine1
		{
			OFFSET	 0.000000	 0.000000	 0.137269
			CHANNELS 3 Zrotation Xrotation Yrotation
			JOINT Spine2
			{
				OFFSET	 0.000000	 0.000000	 0.156879
				CHANNELS 3 Zrotation Xrotation Yrotation
				JOINT LeftShoulder
				{
					OFFSET	 0.080501	-0.002496	 0.160144
					CHANNELS 3 Zrotation Xrotation Yrotation
					JOINT LeftArm
					{
						OFFSET	 0.000000	 0.000000	 0.164363
						CHANNELS 3 Zrotation Xrotation Yrotation
						JOINT LeftForeArm
						{
							OFFSET	 0.000000	 0.000000	 0.364576
							CHANNELS 3 Zrotation Xrotation Yrotation
							JOINT LeftHand
							{
								OFFSET	 0.000000	 0.000000	 0.360812
								CHANNELS 3 Zrotation Xrotation Yrotation
								JOINT LeftHandIndex1
								{
									OFFSET	 0.000000	 0.000000	 0.086006
									CHANNELS 3 Zrotation Xrotation Yrotation
									JOINT LeftHandIndex2
									{
										OFFSET	 0.000000	 0.000000	 0.047236
										CHANNELS 3 Zrotation Xrotation Yrotation
										JOINT LeftHandIndex3
										{
											OFFSET	-0.004284	-0.000551	 0.038166
											CHANNELS 3 Zrotation Xrotation Yrotation
											End Site
											{
												OFFSET	-0.004284	-0.000551	 0.038166
											}
										}
									}
								}
							}
						}
					}
				}
				JOINT Neck
				{
					OFFSET	 0.000000	 0.000000	 0.176489
					CHANNELS 3 Zrotation Xrotation Yrotation
					JOINT Head
					{
						OFFSET	 0.000000	-0.001747	 0.077940
						CHANNELS 3 Zrotation Xrotation Yrotation
						End Site
						{
							OFFSET	 0.000000	-0.001747	 0.077940
						}
					}
				}
				JOINT RightShoulder
				{
					OFFSET	-0.080363	 0.000306	 0.159706
					CHANNELS 3 Zrotation Xrotation Yrotation
					JOINT RightArm
					{
						OFFSET	 0.000000	 0.000000	 0.164196
						CHANNELS 3 Zrotation Xrotation Yrotation
						JOINT RightForeArm
						{
							OFFSET	 0.000000	 0.000000	 0.365611
							CHANNELS 3 Zrotation Xrotation Yrotation
							JOINT RightHand
							{
								OFFSET	 0.000000	 0.000000	 0.360648
								CHANNELS 3 Zrotation Xrotation Yrotation
								JOINT RightHandIndex1
								{
									OFFSET	 0.000000	 0.000000	 0.069977
									CHANNELS 3 Zrotation Xrotation Yrotation
									JOINT RightHandIndex2
									{
										OFFSET	 0.000000	 0.000000	 0.052305
										CHANNELS 3 Zrotation Xrotation Yrotation
										JOINT RightHandIndex3
										{
											OFFSET	 0.009002	-0.000782	 0.042196
											CHANNELS 3 Zrotation Xrotation Yrotation
											End Site
											{
												OFFSET	 0.009002	-0.000782	 0.042196
											}
										}
									}
								}
							}
						}
					}
				}
			}
		}
	}
}
MOTION
Frames:    8
Frame Time: 0.03333334
-0.056175	-2.232247	 1.153162	 4.077217	-1.795704	-3.403985	 1.007482	-18.750020	-170.607600	 0.275887	-51.837040	-0.049581	 94.501190	 82.581210	-98.488750	-2.371394	 31.277620	-0.062301	-1.156299	-33.295600	-174.552400	 13.941990	-63.389180	 13.188730	 19.480430	 75.690240	-15.287450	 2.357822	 33.167460	 0.107119	-0.477989	 9.051143	 1.369486	 0.506465	 2.566264	 1.724167	-4.822881	-2.251230	-2.229287	-93.762560	 58.860840	 175.775400	 20.319220	 40.683800	-35.087690	-0.274681	-0.063001	-0.507597	 0.822051	-3.295909	-5.821129	-4.869484	 19.239820	-2.786442	-3.891003	 21.351320	 2.212387	-4.808240	 5.545738	 0.146954	-0.127946	-5.012997	 0.157619	-6.986770	 2.332577	 2.552812	 89.834210	 61.579390	-179.876200	-20.341610	 51.742010	 10.771940	-1.289801	-2.549607	 13.321020	-4.938080	 10.689850	 0.785084	 6.304879	 26.034480	-0.578513	 1.722212	 45.987040	-6.847035	 0.340872	 25.083560	 3.663302
-0.056571	-2.240691	 1.153132	 4.624197	-1.528116	-3.385943	 0.551936	-18.622470	-170.645800	 0.810764	-51.754710	 0.307889	 94.794410	 82.573520	-99.074080	-2.370436	 31.440600	-0.065982	-2.384256	-34.240680	-174.525000	 14.388310	-62.547490	 13.506860	 29.170770	 79.327840	-25.625380	 2.358384	 33.086090	 0.105220	-0.892964	 8.920581	 1.291488	 0.512163	 2.325543	 1.782446	-4.900867	-2.230908	-2.226468	-93.863750	 58.941310	 175.550400	 20.532950	 40.072380	-35.587960	-0.841496	-0.057688	-0.506258	 1.161860	-3.438233	-6.708953	-4.869233	 19.244850	-2.786489	-3.886967	 21.403110	 2.208283	-4.808256	 5.545528	 0.146968	-0.097763	-5.049054	 0.172993	-6.960704	 2.304319	 2.429288	 89.802430	 61.619690	-179.951700	-20.032280	 52.017360	 10.176320	-1.459790	-2.556316	 13.147280	-4.950610	 11.025060	 0.667208	 6.298275	 25.343210	-0.556133	 1.820430	 45.221270	-6.935032	 0.456272	 24.582410	 3.603899
-0.057008	-2.250230	 1.152987	 5.153262	-1.261410	-3.374419	-0.054685	-18.451060	-170.739900	 1.178520	-51.661160	 0.647737	 95.587560	 82.584730	-100.136900	-2.369506	 31.597810	-0.069533	-3.533651	-35.251130	-174.508200	 14.707420	-61.579520	 13.675910	 46.312710	 81.976690	-43.469270	 2.358902	 33.009880	 0.103451	-1.296686	 8.788117	 1.215225	 0.512126	 2.113117	 1.840807	-4.977212	-2.221684	-2.225315	-93.962400	 59.016400	 175.330200	 20.661920	 39.394500	-36.115250	-1.340098	-0.053308	-0.507147	 1.449919	-3.566424	-7.550461	-4.868850	 19.253830	-2.786872	-3.882919	 21.454910	 2.204170	-4.808150	 5.546779	 0.146894	-0.068648	-5.083293	 0.188790	-6.936657	 2.277132	 2.311716	 89.771040	 61.659440	 179.973600	-19.730640	 52.300620	 9.525858	-1.631601	-2.571940	 13.020300	-4.967938	 11.350090	 0.550164	 6.291927	 24.664190	-0.536048	 1.913382	 44.474280	-7.017951	 0.570261	 24.082910	 3.546042
-0.057412	-2.261341	 1.152707	 5.636255	-0.818162	-3.395696	-0.541832	-18.352770	-170.792400	 1.411397	-51.545450	 0.829094	 96.454520	 82.625630	-101.134200	-2.368686	 31.734160	-0.072617	-4.836227	-36.604550	-174.519800	 15.293980	-60.329900	 14.036370	 72.589650	 83.312520	-70.584270	 2.358987	 32.997120	 0.103154	-1.603944	 8.491499	 1.110568	 0.500738	 1.918525	 1.975320	-5.063722	-2.232816	-2.265981	-94.083420	 59.018440	 175.071700	 20.558790	 38.608960	-36.575560	-1.519281	-0.051773	-0.507601	 1.887841	-3.813208	-7.963247	-4.865014	 19.358170	-2.794975	-3.876018	 21.543190	 2.197157	-4.805189	 5.581701	 0.144854	-0.043999	-5.101301	 0.224087	-6.938804	 2.256789	 2.239107	 89.724880	 61.715180	 179.863300	-19.414450	 52.613550	 8.788145	-1.996684	-2.635885	 12.907370	-5.131500	 11.675330	 0.376701	 6.279644	 23.788200	-0.548310	 2.014910	 43.632690	-7.108121	 0.752473	 23.275070	 3.455240
-0.057841	-2.273911	 1.152205	 6.097079	-0.371465	-3.443246	-1.013500	-18.168600	-170.834600	 1.638819	-51.411160	 1.005335	 98.105390	 82.673130	-102.907100	-2.367769	 31.882820	-0.076013	-6.032827	-38.023390	-174.549900	 15.638630	-58.884970	 14.139590	 102.557100	 82.407900	-101.519400	 2.359224	 32.961910	 0.102337	-1.896628	 8.184199	 1.025533	 0.489592	 1.767700	 2.109758	-5.148773	-2.259052	-2.309134	-94.204120	 59.015440	 174.814700	 20.366230	 37.731200	-37.092140	-1.715850	-0.050036	-0.507789	 2.249165	-4.074135	-8.297653	-4.860507	 19.476190	-2.803384	-3.868531	 21.638720	 2.189549	-4.801726	 5.622511	 0.142465	-0.020747	-5.121933	 0.259788	-6.943758	 2.235986	 2.172444	 89.675010	 61.775860	 179.743400	-19.078600	 52.942890	 7.965860	-2.399566	-2.722115	 12.861700	-5.308039	 12.013180	 0.157760	 6.266454	 22.879510	-0.563664	 2.114095	 42.783640	-7.195772	 0.941178	 22.426390	 3.363456
-0.058011	-2.289324	 1.151397	 6.351361	 0.096443	-3.663063	-1.215700	-17.746800	-170.706400	 1.802489	-51.131320	 1.128866	 102.178000	 82.627590	-107.094400	-2.366251	 32.128330	-0.081603	-6.406976	-39.595410	-174.286800	 15.879430	-57.087690	 14.082760	 110.587600	 80.775610	-110.651100	 2.360704	 32.741400	 0.097233	-2.033350	 7.788525	 1.113835	 0.498129	 1.829762	 2.223164	-5.216517	-2.339489	-2.358693	-94.317940	 58.968140	 174.579100	 19.964370	 36.673210	-37.745950	-2.233352	-0.045503	-0.508459	 2.210330	-4.513340	-7.954272	-4.850743	 19.703750	-2.814006	-3.856517	 21.791370	 2.177346	-4.794201	 5.711066	 0.137265	-0.010089	-5.164089	 0.297381	-6.972291	 2.212330	 2.157994	 89.594440	 61.874940	 179.548900	-18.631260	 53.318440	 7.062789	-3.122102	-2.885132	 12.819650	-5.597130	 12.442810	-0.427442	 6.246773	 21.731750	-0.603254	 2.213607	 41.903820	-7.283256	 1.194068	 21.270030	 3.244137
-0.058218	-2.302562	 1.150513	 6.523596	 0.423482	-3.834735	-1.368114	-17.304520	-170.619300	 1.916900	-50.900540	 1.214003	 105.329700	 82.574230	-110.323900	-2.364618	 32.384480	-0.087471	-6.372189	-40.755930	-173.983000	 15.868650	-55.508680	 13.764110	 116.027600	 79.108360	-116.854700	 2.360730	 32.738460	 0.097164	-2.139669	 7.490798	 1.189985	 0.505496	 1.947498	 2.298455	-5.261847	-2.422842	-2.391891	-94.398370	 58.931470	 174.413500	 19.537950	 35.814720	-38.282440	-2.612425	-0.042249	-0.510577	 2.138561	-4.797201	-7.687156	-4.842650	 19.884530	-2.820878	-3.846386	 21.919750	 2.167056	-4.787497	 5.789927	 0.132627	-0.000652	-5.199485	 0.323102	-6.988436	 2.190612	 2.141845	 89.534190	 61.946510	 179.402600	-18.242670	 53.611610	 6.276395	-3.708040	-3.031081	 12.842550	-5.798352	 12.751960	-0.936972	 6.230283	 20.810770	-0.636425	 2.302055	 41.097450	-7.360606	 1.394171	 20.339740	 3.152795
-0.058570	-2.319679	 1.149197	 6.595632	 0.627001	-4.021428	-1.475750	-16.466020	-170.542800	 1.989517	-50.580470	 1.264596	 107.466500	 82.546650	-112.502900	-2.360735	 32.975040	-0.101087	-5.710429	-41.830270	-173.562300	 15.098080	-53.527580	 12.865610	 127.291000	 75.491390	-128.640300	 2.355429	 33.510530	 0.115138	-2.255291	 7.202887	 1.309879	 0.524899	 2.335766	 2.325003	-5.278518	-2.583213	-2.402459	-94.451870	 58.889450	 174.306300	 18.759780	 34.870040	-38.922250	-2.977646	-0.038922	-0.509595	 1.913527	-4.876527	-7.393040	-4.831355	 20.107070	-2.822080	-3.831304	 22.109980	 2.151731	-4.775961	 5.925412	 0.124637	 0.015148	-5.251784	 0.336188	-6.979150	 2.150564	 2.102349	 89.475810	 62.002510	 179.260200	-17.647780	 53.934620	 5.237117	-4.488284	-3.237217	 12.911120	-5.936177	 12.987450	-1.758714	 6.207619	 19.635730	-0.684786	 2.457579	 39.621250	-7.495635	 1.647470	 19.143110	 3.041170
